<?xml version="1.0" encoding="UTF-8" standalone="no"?>
<!-- Created with Inkscape (http://www.inkscape.org/) -->

<svg
   xmlns:dc="http://purl.org/dc/elements/1.1/"
   xmlns:cc="http://creativecommons.org/ns#"
   xmlns:rdf="http://www.w3.org/1999/02/22-rdf-syntax-ns#"
   xmlns:svg="http://www.w3.org/2000/svg"
   xmlns="http://www.w3.org/2000/svg"
   xmlns:xlink="http://www.w3.org/1999/xlink"
   xmlns:sodipodi="http://sodipodi.sourceforge.net/DTD/sodipodi-0.dtd"
   xmlns:inkscape="http://www.inkscape.org/namespaces/inkscape"
   width="150mm"
   height="150mm"
   viewBox="0 0 150 150"
   version="1.1"
   id="svg12160"
   inkscape:version="0.92.4 5da689c313, 2019-01-14"
   sodipodi:docname="darwin.svg">
  <defs
     id="defs12154">
    <linearGradient
       inkscape:collect="always"
       id="linearGradient14558">
      <stop
         style="stop-color:#677821;stop-opacity:1"
         offset="0"
         id="stop14554" />
      <stop
         style="stop-color:#3e4837;stop-opacity:1"
         offset="1"
         id="stop14556" />
    </linearGradient>
    <linearGradient
       inkscape:collect="always"
       id="linearGradient14549">
      <stop
         style="stop-color:#6d5c1e;stop-opacity:1"
         offset="0"
         id="stop14545" />
      <stop
         style="stop-color:#6a7826;stop-opacity:1"
         offset="1"
         id="stop14547" />
    </linearGradient>
    <linearGradient
       inkscape:collect="always"
       id="linearGradient14537">
      <stop
         style="stop-color:#241f1c;stop-opacity:1"
         offset="0"
         id="stop14533" />
      <stop
         style="stop-color:#abb9a6;stop-opacity:1"
         offset="1"
         id="stop14535" />
    </linearGradient>
    <linearGradient
       inkscape:collect="always"
       id="linearGradient13887">
      <stop
         style="stop-color:#ff9955;stop-opacity:1;"
         offset="0"
         id="stop13881" />
      <stop
         id="stop13883"
         offset="0.58750653"
         style="stop-color:#97592f;stop-opacity:0.95294118;" />
      <stop
         style="stop-color:#120700;stop-opacity:0.89655173"
         offset="1"
         id="stop13885" />
    </linearGradient>
    <inkscape:path-effect
       vertical="false"
       scale_y_rel="false"
       prop_scale="1"
       bendpath="M 24.361374,47.006957 4.4735007,47.260071 26.351633,31.078305 h 15.750976 l 0.436922,1.623703 -0.872892,0.226039 -7.138218,14.009542 z"
       is_visible="true"
       id="path-effect12955"
       effect="bend_path" />
    <inkscape:path-effect
       effect="bend_path"
       id="path-effect12951"
       is_visible="true"
       bendpath="m 92.074484,177.66409 -75.166765,0.95665 82.689007,-61.15943 h 59.531254 l 1.65135,6.13683 -3.29911,0.85432 -26.97909,52.94945 z"
       prop_scale="1"
       scale_y_rel="false"
       vertical="false" />
    <inkscape:path-effect
       vertical="false"
       scale_y_rel="false"
       prop_scale="1"
       bendpath="m 20.481608,25.571298 c 0,0 -0.2571,4.499418 -0.928893,5.807648 -0.671794,1.308227 -2.510386,8.485806 -1.697162,9.794036 0.813223,1.308227 2.86396,2.863958 4.384334,3.111463 1.520374,0.247502 4.950054,-1.626447 5.621847,-2.227525 0.671793,-0.601077 1.661805,-1.555731 2.651815,-2.651815 0.99001,-1.096084 4.500325,-3.388114 5.664721,-4.262078 1.1644,-0.873961 10.387598,0.302035 10.387598,0.302035 L 46.919444,24.130651 43.419048,19.923105 31.256057,18.897737 15.203738,18.791665 Z"
       is_visible="true"
       id="path-effect12920"
       effect="bend_path" />
    <inkscape:path-effect
       effect="bend_path"
       id="path-effect12916"
       is_visible="true"
       bendpath="m 77.410802,96.647429 c 0,0 -0.971717,17.005671 -3.510777,21.950161 -2.539061,4.94449 -9.48807,32.07234 -6.414469,37.01683 3.073599,4.94449 10.824417,10.82442 16.570712,11.75986 5.746295,0.93544 18.708862,-6.1472 21.247922,-8.41899 2.53906,-2.27179 6.28084,-5.87993 10.02261,-10.02261 3.74177,-4.14268 17.0091,-12.80547 21.40998,-16.10863 4.40087,-3.30317 39.2602,1.14154 39.2602,1.14154 L 177.33333,91.202462 164.10349,75.299927 118.13313,71.42452 57.462949,71.023615 Z"
       prop_scale="1"
       scale_y_rel="false"
       vertical="false" />
    <clipPath
       clipPathUnits="userSpaceOnUse"
       id="clipPath13008">
      <path
         sodipodi:nodetypes="cscsc"
         inkscape:connector-curvature="0"
         id="path13010"
         d="m 107.55785,89.727307 c 0,0 0.7087,3.638018 3.89788,3.756136 3.57477,0.132395 6.23661,-3.425407 6.23661,-3.425407 0,0 -1.53469,-2.347722 -4.98457,-2.787578 -4.78087,-0.609555 -5.14992,2.456849 -5.14992,2.456849 z"
         style="opacity:0.59574465;fill:#374837;stroke:#000000;stroke-width:0.26458332px;stroke-linecap:butt;stroke-linejoin:miter;stroke-opacity:1" />
    </clipPath>
    <radialGradient
       inkscape:collect="always"
       xlink:href="#linearGradient14537"
       id="radialGradient14543"
       cx="112.11143"
       cy="89.528557"
       fx="112.11143"
       fy="89.528557"
       r="9.4664793"
       gradientTransform="matrix(0.01847198,-0.45644974,0.8717062,0.03527687,32.630791,138.12357)"
       gradientUnits="userSpaceOnUse" />
    <radialGradient
       inkscape:collect="always"
       xlink:href="#linearGradient14549"
       id="radialGradient14551"
       cx="354.52148"
       cy="526.50562"
       fx="354.52148"
       fy="526.50562"
       r="194.8253"
       gradientTransform="matrix(0.46941784,-0.16831808,0.21874411,0.61004967,71.916543,258.98215)"
       gradientUnits="userSpaceOnUse" />
    <radialGradient
       inkscape:collect="always"
       xlink:href="#linearGradient14558"
       id="radialGradient14560"
       cx="112.40348"
       cy="90.338669"
       fx="112.40348"
       fy="90.338669"
       r="3.9479334"
       gradientTransform="matrix(1,0,0,0.79747561,0,18.295784)"
       gradientUnits="userSpaceOnUse" />
    <linearGradient
       inkscape:collect="always"
       xlink:href="#linearGradient13887"
       id="linearGradient1809"
       gradientUnits="userSpaceOnUse"
       x1="93.70929"
       y1="77.429581"
       x2="94.705231"
       y2="79.749458" />
    <linearGradient
       inkscape:collect="always"
       xlink:href="#linearGradient13887"
       id="linearGradient1811"
       gradientUnits="userSpaceOnUse"
       x1="158.43608"
       y1="124.95031"
       x2="161.07513"
       y2="124.95031" />
    <linearGradient
       inkscape:collect="always"
       xlink:href="#linearGradient13887"
       id="linearGradient1813"
       gradientUnits="userSpaceOnUse"
       x1="153.07892"
       y1="80.369133"
       x2="154.32626"
       y2="85.431793" />
    <clipPath
       clipPathUnits="userSpaceOnUse"
       id="clipPath1815">
      <rect
         ry="16.744362"
         y="67.325203"
         x="59.287025"
         height="110.15334"
         width="110.1509"
         id="rect1817"
         style="opacity:1;fill:#000000;fill-opacity:1;stroke:none;stroke-width:0.19299999;stroke-linecap:butt;stroke-linejoin:round;stroke-miterlimit:4;stroke-dasharray:none;stroke-opacity:1;paint-order:markers fill stroke" />
    </clipPath>
  </defs>
  <sodipodi:namedview
     id="base"
     pagecolor="#ffffff"
     bordercolor="#666666"
     borderopacity="1.0"
     inkscape:pageopacity="0.0"
     inkscape:pageshadow="2"
     inkscape:zoom="1.28"
     inkscape:cx="219.62276"
     inkscape:cy="283.57963"
     inkscape:document-units="mm"
     inkscape:current-layer="g2061"
     showgrid="false"
     inkscape:snap-bbox="true"
     inkscape:object-paths="true"
     inkscape:snap-intersection-paths="true"
     inkscape:window-width="1920"
     inkscape:window-height="1173"
     inkscape:window-x="0"
     inkscape:window-y="27"
     inkscape:window-maximized="1"
     fit-margin-top="0"
     fit-margin-left="0"
     fit-margin-right="0"
     fit-margin-bottom="0"
     inkscape:bbox-paths="true"
     inkscape:snap-page="true"
     inkscape:bbox-nodes="true"
     inkscape:snap-bbox-edge-midpoints="true"
     inkscape:snap-bbox-midpoints="true"
     inkscape:snap-object-midpoints="true" />
  <metadata
     id="metadata12157">
    <rdf:RDF>
      <cc:Work
         rdf:about="">
        <dc:format>image/svg+xml</dc:format>
        <dc:type
           rdf:resource="http://purl.org/dc/dcmitype/StillImage" />
        <dc:title></dc:title>
      </cc:Work>
    </rdf:RDF>
  </metadata>
  <g
     inkscape:label="Layer 1"
     inkscape:groupmode="layer"
     id="layer1"
     transform="translate(-16.767853,-28.760051)">
    <g
       id="g14656"
       transform="translate(-2.8742786,-22.555825)">
      <g
         id="g954"
         transform="matrix(1.3617683,0,0,1.3617382,-61.09306,-40.363424)"
         style="stroke-width:0.7343474"
         clip-path="url(#clipPath1815)">
        <path
           style="opacity:1;fill:#675918;fill-opacity:1;stroke:#000000;stroke-width:0.7343474px;stroke-linecap:butt;stroke-linejoin:miter;stroke-opacity:1"
           d="m 400.9707,296.17578 c -16.6564,0.19087 -32.51824,3.35003 -50.25586,14.20117 -10.30655,6.30513 -31.13203,22.64295 -53.48828,49.32422 -0.003,0.004 -0.007,0.006 -0.01,0.01 -0.0178,0.0212 -0.0349,0.0412 -0.0527,0.0625 v 0.002 c -16.76516,20.02049 -35.23699,43.67882 -53.59179,66.31641 -1.17965,1.4549 -2.3576,2.87815 -3.53516,4.28711 -0.36279,0.43424 -0.72528,0.86483 -1.08789,1.29492 -0.5652,0.67005 -1.13054,1.32624 -1.69531,1.98633 -1.45282,1.69901 -2.90509,3.3691 -4.35547,5.00586 -0.23332,0.26308 -0.46596,0.53338 -0.69922,0.79492 -3.62937,4.07271 -7.25155,7.95495 -10.8711,11.6914 -0.0155,0.016 -0.0313,0.0328 -0.0469,0.0488 -0.01,0.01 -0.0197,0.0194 -0.0293,0.0293 -14.21071,14.66166 -28.37771,27.02332 -42.70507,39.18359 -0.008,0.007 -0.017,0.0143 -0.0254,0.0215 -5.25137,4.45693 -10.52838,8.8959 -15.83398,13.41015 -0.72262,0.61454 -1.44997,1.2416 -2.17383,1.85938 -2.07776,1.77414 -4.15723,3.5541 -6.24609,5.36328 -0.68907,0.59658 -1.38191,1.21119 -2.07227,1.8125 -2.23399,1.94645 -4.47006,3.9007 -6.71875,5.90625 -0.0143,0.0127 -0.0287,0.0244 -0.043,0.0371 -10.43089,9.30464 -21.0249,19.32418 -31.86132,30.83789 -45.714058,48.57107 -49.669666,125.4392 -49.669666,125.4392 L 301.42773,663.23438 c 0,0 97.85824,-18.92832 171.42969,-114.64258 7.88172,-10.25389 15.62606,-19.23736 23.17578,-27.11914 6.3e-4,-6.6e-4 10e-4,-10e-4 0.002,-0.002 h 0.002 c 0.86077,-0.8986 1.71865,-1.77649 2.57422,-2.64648 0.15245,-0.15502 0.30475,-0.31447 0.45703,-0.46875 0.003,-0.003 0.005,-0.005 0.008,-0.008 0.78742,-0.79687 1.57069,-1.57661 2.35352,-2.34961 0.0292,-0.0288 0.0587,-0.0571 0.0879,-0.0859 0.20457,-0.20216 0.40916,-0.40534 0.61328,-0.60547 0.004,-0.004 0.008,-0.008 0.0117,-0.0117 0.77278,-0.75739 1.54246,-1.50182 2.31054,-2.23633 0.0163,-0.0156 0.0325,-0.0313 0.0488,-0.0469 0.18479,-0.17646 0.37032,-0.35219 0.55469,-0.52734 0.8032,-0.76311 1.60447,-1.51543 2.40234,-2.25391 0.16184,-0.14977 0.32286,-0.29854 0.48438,-0.44727 0.009,-0.008 0.0182,-0.017 0.0273,-0.0254 0.81696,-0.75188 1.63221,-1.4942 2.44336,-2.2207 0.005,-0.004 0.009,-0.008 0.0137,-0.0117 0.10745,-0.096 0.21495,-0.1894 0.32227,-0.28516 0.8682,-0.77466 1.73244,-1.53905 2.59375,-2.28515 1.87644,-1.62546 3.73596,-3.18381 5.57813,-4.67774 1.84215,-1.49383 3.66696,-2.92341 5.47265,-4.29101 0.90022,-0.68182 1.79675,-1.3466 2.6875,-1.99805 0.003,-0.002 0.005,-0.004 0.008,-0.006 0.001,-8.6e-4 0.003,-0.001 0.004,-0.002 0.81821,-0.59831 1.62945,-1.18264 2.43945,-1.75586 0.0137,-0.01 0.0273,-0.0196 0.041,-0.0293 0.11258,-0.0796 0.22557,-0.15921 0.33789,-0.23828 0.79911,-0.5626 1.59586,-1.11365 2.38672,-1.65234 0.031,-0.0211 0.0611,-0.0432 0.0918,-0.0645 0.0204,-0.0139 0.0402,-0.0272 0.0606,-0.041 0.0181,-0.0125 0.0365,-0.0247 0.0547,-0.0371 0.78708,-0.53455 1.56898,-1.05699 2.34766,-1.56836 0.005,-0.003 0.009,-0.007 0.0137,-0.01 0.1245,-0.0816 0.24882,-0.16127 0.37304,-0.24218 0.013,-0.008 0.0261,-0.0169 0.0391,-0.0254 0.76642,-0.50021 1.53103,-0.99249 2.28906,-1.47071 0.98123,-0.61903 1.9532,-1.21578 2.91992,-1.79882 0.28307,-0.17073 0.56389,-0.33425 0.8457,-0.50196 0.66958,-0.39845 1.33571,-0.79025 1.99805,-1.17187 0.34734,-0.20014 0.69374,-0.39817 1.03906,-0.59375 0.42443,-0.24037 0.84428,-0.4715 1.26563,-0.70508 1.43458,-0.7953 2.85789,-1.56428 4.25586,-2.2832 0.007,-0.004 0.0144,-0.008 0.0215,-0.0117 0.007,-0.004 0.0142,-0.008 0.0215,-0.0117 0.005,-0.002 0.009,-0.004 0.0137,-0.006 1.56889,-0.80599 3.11402,-1.56461 4.63476,-2.2793 0.0172,-0.008 0.0338,-0.0171 0.0508,-0.0254 0.009,-0.004 0.0181,-0.007 0.0273,-0.0117 0.009,-0.004 0.0181,-0.009 0.0273,-0.0137 1.51553,-0.71071 3.00714,-1.37875 4.47266,-2.00391 0.006,-0.003 0.0131,-0.005 0.0195,-0.008 0.0107,-0.005 0.0205,-0.009 0.0312,-0.0137 1.25063,-0.53288 2.47278,-1.0201 3.68555,-1.49414 0.49392,-0.19186 0.98728,-0.38224 1.47461,-0.56445 0.56983,-0.21468 1.12854,-0.41112 1.68945,-0.61328 1.41647,-0.5066 2.81258,-0.98635 4.17383,-1.42188 0.62166,-0.19879 1.25181,-0.41135 1.86133,-0.5957 0.009,-0.003 0.0185,-0.005 0.0273,-0.008 0.51541,-0.15543 1.01397,-0.29175 1.51562,-0.43164 0.22443,-0.0643 0.44927,-0.12912 0.67188,-0.1914 0.64203,-0.17952 1.28735,-0.36404 1.91406,-0.52735 0.007,-0.002 0.0142,-0.004 0.0215,-0.006 0.70959,-0.18486 1.40222,-0.35061 2.09179,-0.51562 0.57409,-0.13726 1.14698,-0.27421 1.70704,-0.39844 0.005,-10e-4 0.009,-0.003 0.0137,-0.004 0.2907,-0.0645 0.57096,-0.11915 0.85742,-0.17969 0.40387,-0.0859 0.81088,-0.17458 1.20703,-0.25391 0.53929,-0.10786 1.07288,-0.21052 1.59766,-0.30664 0.65019,-0.11922 1.29238,-0.23379 1.91992,-0.33594 0.52606,-0.0855 1.03897,-0.16213 1.54883,-0.23632 0.58177,-0.0848 1.16428,-0.17126 1.72461,-0.24219 0.01,-0.001 0.0193,-0.003 0.0293,-0.004 0.51821,-0.065 1.01769,-0.11763 1.51758,-0.17187 0.51581,-0.0561 1.0396,-0.11705 1.53516,-0.16211 0.50255,-0.0455 0.97651,-0.0786 1.45703,-0.11328 0.0122,-8.9e-4 0.0249,-10e-4 0.0371,-0.002 0.0821,-0.006 0.16315,-0.0113 0.24609,-0.0176 0.36089,-0.0251 0.74127,-0.0585 1.08984,-0.0781 0.76636,-0.043 1.49355,-0.0705 2.19922,-0.0898 0.0934,-0.003 0.19872,-0.01 0.29102,-0.0117 0.4112,-0.01 0.78226,-0.007 1.17187,-0.01 0.3999,-0.004 0.8062,-0.009 1.17969,-0.006 0.38231,0.004 0.73163,0.0141 1.08985,0.0234 0.025,6.5e-4 0.0512,0.001 0.0762,0.002 0.28625,0.008 0.57601,0.0129 0.8457,0.0234 0.0131,5.1e-4 0.028,10e-4 0.041,0.002 0.28334,0.0117 0.5409,0.0284 0.80664,0.043 0.0502,0.003 0.10412,0.005 0.15429,0.008 0.25693,0.0148 0.51204,0.0298 0.75196,0.0469 0.002,1.8e-4 0.005,-1.8e-4 0.008,0 0.78845,0.0562 1.43949,0.12315 2.03711,0.19141 0.0593,0.007 0.14546,0.0127 0.20312,0.0195 0.60772,0.0724 1.0871,0.14233 1.47266,0.20508 0.12582,0.0205 0.33446,0.0464 0.43555,0.0645 0.36047,0.065 0.62304,0.11914 0.62304,0.11914 0,0 6.16044,-5.17776 13.08008,-11.74023 1.72959,-1.64032 3.50603,-3.36907 5.2461,-5.12305 1.74071,-1.75465 3.44501,-3.53539 5.02734,-5.28516 1.58203,-1.74944 3.04199,-3.46584 4.29687,-5.09179 1.25489,-1.62598 2.30358,-3.161 3.0625,-4.54493 0.18945,-0.34546 0.3614,-0.6944 0.51563,-1.04492 v -0.002 c 0.0433,-0.0983 0.0747,-0.19818 0.11523,-0.29688 0.12361,-0.30072 0.2403,-0.60274 0.33985,-0.90625 6.4e-4,-0.002 10e-4,-0.004 0.002,-0.006 0.10295,-0.30528 0.19457,-0.61197 0.27149,-0.91992 0.0893,-0.35749 0.16289,-0.71669 0.22265,-1.07617 v -0.002 c 0.007,-0.037 0.009,-0.0742 0.0137,-0.11133 0.001,-0.008 0.003,-0.0169 0.004,-0.0254 10e-4,-0.006 9.5e-4,-0.0131 0.002,-0.0195 0.0496,-0.32128 0.0914,-0.64287 0.11914,-0.96485 0.0314,-0.34767 0.0506,-0.69496 0.0566,-1.04297 0.006,-0.36102 2e-4,-0.72208 -0.0176,-1.08203 -0.0233,-0.4729 -0.074,-0.94311 -0.13477,-1.41211 -0.0181,-0.13909 -0.0375,-0.27739 -0.0586,-0.41601 -0.0702,-0.46158 -0.15055,-0.92211 -0.25196,-1.37695 -0.078,-0.34995 -0.16563,-0.69843 -0.25976,-1.04297 -1.7e-4,-6.1e-4 1.6e-4,-0.001 0,-0.002 -0.0943,-0.34514 -0.1957,-0.68621 -0.30469,-1.02539 -0.21779,-0.67777 -0.46415,-1.34318 -0.72852,-1.99023 -2.2e-4,-5.6e-4 2.3e-4,-10e-4 0,-0.002 -0.26463,-0.64759 -0.54799,-1.27651 -0.84375,-1.88477 -0.59151,-1.21652 -1.22977,-2.34668 -1.85546,-3.35742 -0.6257,-1.01074 -1.23884,-1.90123 -1.77735,-2.64063 -0.53812,-0.73887 -1.00213,-1.32605 -1.33203,-1.72851 v -0.002 c -0.32994,-0.40248 -0.52539,-0.61914 -0.52539,-0.61914 0,0 -19.95025,3.06948 -43.2832,7.11524 -13.99977,2.42745 -29.21708,5.20619 -42.07422,7.88476 -1.24322,0.25901 -2.55898,0.49448 -3.91602,0.7168 -0.36476,0.0598 -0.74664,0.11271 -1.11914,0.16992 -1.01877,0.15643 -2.06108,0.30562 -3.13476,0.44336 -0.44467,0.0571 -0.8941,0.11207 -1.34766,0.16602 -1.09979,0.13076 -2.2279,0.25226 -3.37695,0.36523 -0.42018,0.0413 -0.83145,0.086 -1.25782,0.125 -1.56713,0.14336 -3.1645,0.27536 -4.80859,0.38867 -1.428,0.0984 -2.8847,0.1867 -4.36328,0.26367 -1.98088,0.10314 -4.01704,0.18091 -6.07422,0.24805 -0.48654,0.0159 -0.97461,0.031 -1.46484,0.0449 -3.96451,0.11291 -8.04683,0.16138 -12.1875,0.16016 -2.87616,-8.3e-4 -5.77196,-0.0186 -8.68555,-0.0664 -2.9161,-0.0478 -5.83935,-0.12466 -8.75391,-0.21289 -0.99692,-0.0302 -1.98875,-0.0652 -2.98242,-0.0996 -2.11062,-0.073 -4.21193,-0.15401 -6.29687,-0.24414 -0.81802,-0.0354 -1.63872,-0.0677 -2.45117,-0.10547 -2.88695,-0.13405 -5.75031,-0.27813 -8.54102,-0.4375 -6.18635,-0.3533 -12.08597,-0.76053 -17.47852,-1.18359 -5.39254,-0.42306 -10.27709,-0.86181 -14.43359,-1.2793 h -0.002 c -2.07755,-0.20866 -3.97232,-0.41233 -5.65821,-0.60546 h -0.002 c -1.68559,-0.19314 -3.16162,-0.37671 -4.40039,-0.54493 h -0.002 c -1.23911,-0.16828 -2.23996,-0.32117 -2.97657,-0.45507 -0.73742,-0.13408 -1.40189,-0.27718 -2.00195,-0.42969 -0.59954,-0.15232 -1.13254,-0.31398 -1.60547,-0.48242 -0.42014,-0.14965 -0.77549,-0.30612 -1.10351,-0.4668 -0.2274,-0.11121 -0.44665,-0.222 -0.63282,-0.33789 -0.15182,-0.0945 -0.29012,-0.18983 -0.41601,-0.28711 -0.12507,-0.0967 -0.23712,-0.19582 -0.33789,-0.29492 -0.16609,-0.16335 -0.29566,-0.33098 -0.40039,-0.5 -0.0108,-0.0174 -0.0231,-0.0353 -0.0332,-0.0527 -0.0951,-0.16327 -0.16105,-0.32883 -0.20507,-0.49609 -0.006,-0.0229 -0.0125,-0.0454 -0.0176,-0.0684 -0.0361,-0.16156 -0.0489,-0.32418 -0.043,-0.48828 0.006,-0.17379 0.0378,-0.34797 0.0859,-0.52344 0.008,-0.0275 0.007,-0.0545 0.0156,-0.082 0.0668,-0.21709 0.16332,-0.43499 0.2832,-0.65234 v -0.002 c 0.24044,-0.4354 0.57788,-0.86814 0.96876,-1.29101 v -0.002 c 0.19533,-0.21128 0.40578,-0.41827 0.62304,-0.62304 0.87056,-0.82026 1.87416,-1.58008 2.67774,-2.20508 0.20089,-0.15625 0.60867,-0.29575 1.20507,-0.41992 0.29766,-0.062 0.64407,-0.12077 1.03321,-0.17578 0.0421,-0.006 0.0975,-0.01 0.14062,-0.0156 0.45002,-0.0613 0.99545,-0.11662 1.5586,-0.16992 0.75715,-0.0723 1.60982,-0.13907 2.55273,-0.19922 0.0598,-0.004 0.10155,-0.008 0.16211,-0.0117 1.34253,-0.0837 2.82949,-0.15879 4.49805,-0.22461 3.04949,-0.12029 6.62931,-0.21548 10.54883,-0.30859 0.7559,-0.018 1.54204,-0.0367 2.32421,-0.0547 3.89579,-0.0892 8.02271,-0.18372 12.41797,-0.29297 4.05907,-0.10104 8.22246,-0.2128 12.5,-0.36133 0.003,-9e-5 0.005,9e-5 0.008,0 2.59366,-0.0901 5.20063,-0.19034 7.8164,-0.30664 4.95888,-0.22039 9.91829,-0.49309 14.72656,-0.84179 2.40444,-0.17442 4.77176,-0.36913 7.08204,-0.58399 2.30984,-0.21491 4.56375,-0.45005 6.74218,-0.71094 2.17843,-0.26088 4.28209,-0.54687 6.29102,-0.85937 1.36977,-0.21308 3.026,-0.50708 4.81836,-0.83789 0.67194,-0.12396 1.40504,-0.26522 2.13086,-0.4043 1.2522,-0.24002 2.57091,-0.49956 3.9707,-0.78125 0.87016,-0.17506 1.72413,-0.34525 2.64648,-0.53515 1.6585,-0.34155 3.41681,-0.71267 5.22657,-1.09766 4.14803,-0.88227 8.68838,-1.8821 13.4414,-2.94336 5.67184,-1.2664 11.564,-2.59848 17.68164,-4.01172 6.2e-4,-1.4e-4 10e-4,1.4e-4 0.002,0 6.51118,-1.50415 13.08101,-3.04705 19.56836,-4.58008 1.61677,-0.38204 3.10692,-0.73686 4.70117,-1.11523 4.01561,-0.95301 7.53161,-1.79391 11.31054,-2.69922 8.21976,-1.96878 15.96052,-3.83187 22.07422,-5.31836 9.63073,-2.34159 15.79297,-3.86328 15.79297,-3.86328 L 635,363.94922 c 0.027,-0.59193 0.0427,-1.17726 0.0488,-1.75391 v -0.002 c 0.006,-0.57661 0.002,-1.14551 -0.0117,-1.70703 v -0.002 c -0.0141,-0.56149 -0.0386,-1.11552 -0.0723,-1.66211 v -0.002 c -0.0674,-1.09376 -0.17262,-2.1581 -0.31445,-3.19336 v -0.002 c -0.14187,-1.0352 -0.32019,-2.0413 -0.53125,-3.01953 v -0.002 c -0.10548,-0.48879 -0.22001,-0.97047 -0.3418,-1.44532 v -0.002 c -0.12176,-0.47467 -0.25306,-0.94334 -0.39062,-1.4043 -1.8e-4,-6e-4 1.8e-4,-0.001 0,-0.002 -0.13776,-0.46153 -0.2827,-0.91532 -0.43555,-1.36328 -0.3054,-0.89616 -0.64028,-1.76445 -1.00195,-2.60742 v -0.002 c -0.36139,-0.84228 -0.74973,-1.65861 -1.16211,-2.44922 -2.7e-4,-5e-4 2.6e-4,-0.001 0,-0.002 -1.23803,-2.37325 -2.69476,-4.51659 -4.29883,-6.45312 v -0.002 c -0.48693,-0.58778 -0.99167,-1.1492 -1.5039,-1.69921 -0.11457,-0.12304 -0.22999,-0.24406 -0.34571,-0.36524 -0.46287,-0.48469 -0.93266,-0.95852 -1.41211,-1.41406 -0.0539,-0.0512 -0.10604,-0.10538 -0.16015,-0.15625 -0.53525,-0.50319 -1.08112,-0.98286 -1.63282,-1.45117 -0.11241,-0.0954 -0.22489,-0.18919 -0.33789,-0.28321 -0.47396,-0.3943 -0.95277,-0.77671 -1.43554,-1.14648 -0.10527,-0.0806 -0.20884,-0.16465 -0.31446,-0.24414 -0.54552,-0.41055 -1.09566,-0.80495 -1.64843,-1.18555 -0.13208,-0.0909 -0.26413,-0.17831 -0.39649,-0.26758 -0.36595,-0.24678 -0.7321,-0.48065 -1.09961,-0.71484 -0.62586,-0.39887 -1.25243,-0.77907 -1.8789,-1.14258 -0.15398,-0.0893 -0.30711,-0.18618 -0.46094,-0.27344 -0.78022,-0.44261 -1.55544,-0.85535 -2.32617,-1.24609 -0.20691,-0.10489 -0.40945,-0.20145 -0.61524,-0.30273 -0.56997,-0.28056 -1.13463,-0.54713 -1.69336,-0.80079 -0.25824,-0.11722 -0.5143,-0.23404 -0.76953,-0.3457 -0.72146,-0.31572 -1.4335,-0.61763 -2.125,-0.89062 -0.67334,-0.26583 -1.31635,-0.50079 -1.95312,-0.72852 -0.96046,-0.3435 -1.87419,-0.64847 -2.72852,-0.91211 -0.21026,-0.0649 -0.39096,-0.11541 -0.59375,-0.17578 -0.704,-0.20964 -1.35595,-0.39436 -1.95898,-0.55273 -0.15662,-0.0412 -0.30598,-0.0812 -0.45508,-0.11915 -0.38217,-0.0972 -0.63944,-0.15539 -0.96875,-0.23242 -0.6413,-0.15055 -0.93865,-0.21979 -1.35547,-0.30273 C 595.54067,319.75891 595,319.66211 595,319.66211 c 0,0 -1.04423,-0.34392 -2.58789,-0.83203 -0.80637,-0.25761 -1.34965,-0.42275 -2.6582,-0.81641 -0.69592,-0.20964 -1.26749,-0.38173 -2.10352,-0.625 -0.41599,-0.12108 -0.81727,-0.23649 -1.26758,-0.36523 -1.62002,-0.46327 -3.3774,-0.95572 -5.43164,-1.50391 -5.6e-4,-1.5e-4 -0.001,1.5e-4 -0.002,0 -3.04225,-0.81184 -6.55185,-1.70523 -10.50195,-2.64258 -3.95057,-0.9376 -8.3428,-1.91971 -13.14844,-2.91015 -6e-4,-1.3e-4 -10e-4,1.2e-4 -0.002,0 -4.80553,-0.9904 -10.0253,-1.99007 -15.63282,-2.96094 -6.1e-4,-1.1e-4 -10e-4,1.1e-4 -0.002,0 -5.60769,-0.97088 -11.60424,-1.91415 -17.96094,-2.79297 -3.17808,-0.43937 -6.44736,-0.86286 -9.80273,-1.26562 -6.3e-4,-8e-5 -10e-4,7e-5 -0.002,0 -3.35606,-0.40284 -6.79743,-0.78544 -10.32421,-1.14258 -12.34375,-1.25 -25.61158,-1.7464 -39.02344,-1.7168 -1.50933,-0.0324 -2.99878,-0.0773 -4.47266,-0.13086 -0.54003,-0.0196 -1.06808,-0.0462 -1.60351,-0.0684 -0.88511,-0.0366 -1.77169,-0.0722 -2.64454,-0.11523 -2.57406,-0.12701 -5.09029,-0.28205 -7.56445,-0.45313 -0.25364,-0.0175 -0.51102,-0.0329 -0.76367,-0.0508 -1.37751,-0.0976 -2.70759,-0.20991 -4.05664,-0.31641 -1.50638,-0.11892 -3.02876,-0.23342 -4.50195,-0.35937 -1.44423,-0.12349 -2.86076,-0.24885 -4.27539,-0.375 -1.70962,-0.15246 -3.42171,-0.30137 -5.0918,-0.45117 -1.80164,-0.1616 -3.59884,-0.31891 -5.35938,-0.46875 -1.0726,-0.0913 -2.13645,-0.17358 -3.19531,-0.25781 -1.42532,-0.11338 -2.85104,-0.22012 -4.25391,-0.31641 -1.82677,-0.12536 -3.6492,-0.24531 -5.44335,-0.33203 -0.69321,-0.0335 -1.3833,-0.0593 -2.07227,-0.0859 -0.44047,-0.017 -0.88341,-0.0368 -1.32227,-0.0508 -0.74015,-0.0236 -1.475,-0.0365 -2.21093,-0.0508 -0.43715,-0.009 -0.87673,-0.0223 -1.3125,-0.0274 -1.14836,-0.0132 -2.29354,-0.015 -3.4336,-0.002 z"
           transform="scale(0.26458333)"
           id="path12716"
           inkscape:connector-curvature="0"
           clip-path="none" />
        <path
           style="opacity:1;fill:#c83737;stroke:#000000;stroke-width:0.19429608px;stroke-linecap:butt;stroke-linejoin:miter;stroke-opacity:1"
           d="m 137.96131,110.65774 c 0,0 8.22098,-2.07887 15.21354,-3.87426 6.99256,-1.79539 14.54406,-4.08743 14.63945,-6.18223 0.0954,-2.094802 -12.08811,-3.078187 -12.08811,-3.078187 l -51.02679,9.543897 1.79539,14.3631 60.57068,-9.26042 0.28349,-3.59077 c 0,0 -3.73252,-2.45685 -11.52828,-0.18899 -7.79576,2.26786 -11.859,3.26004 -17.85937,2.26786 z"
           id="path12867"
           inkscape:connector-curvature="0" />
        <path
           style="opacity:1;fill:#395f39;fill-opacity:1;stroke:#483e37;stroke-width:0.7343474px;stroke-linecap:butt;stroke-linejoin:miter;stroke-opacity:1"
           d="m 599.86719,466.41211 c -19.24896,-0.23651 -69.5321,7.40292 -127.00977,82.17969 -73.57145,95.71426 -171.42969,114.64258 -171.42969,114.64258 L 63.902344,675.10156 347.99805,671.48633 c 0,0 73.81005,0.26506 130.11914,-0.69531 l 0.33398,-0.002 0.002,-0.004 c 32.96457,-0.56591 59.88909,-1.55207 62.26172,-3.26563 6.42856,-4.64285 25.00027,-66.07173 35.35743,-87.85742 10.35711,-21.78573 11.78515,-51.07172 14.28515,-80.35742 0.63445,-7.43211 2.10026,-13.15523 3.92969,-17.56836 l 13.16797,-14.35938 c 0.47553,-0.15594 0.75976,-0.21484 0.75976,-0.21484 0,0 -0.18429,-0.0141 -0.54492,-0.0195 l -0.70898,-0.19141 c -1.31868,-0.2071 -3.64328,-0.49667 -7.09375,-0.53906 z"
           transform="scale(0.26458333)"
           id="path12718"
           inkscape:connector-curvature="0" />
        <path
           style="fill:url(#radialGradient14551);fill-opacity:1;stroke:#483e37;stroke-width:0.7343474px;stroke-linecap:butt;stroke-linejoin:miter;stroke-opacity:1"
           d="m 464.54883,300.08789 c -46.68829,-1.0017 -75.99374,-12.86005 -113.83399,10.28906 -10.31614,6.31099 -31.17091,22.67116 -53.55078,49.39649 -7e-5,6.4e-4 8e-5,0.001 0,0.002 -5.15797,43.4999 -11.57661,87.48466 -29.53125,127.7832 -8.30149,35.62356 -26.65766,77.80587 -6.74219,112.26368 23.53016,35.97596 76.17762,45.99488 111.34766,21.19335 46.46119,-24.72529 74.81972,-72.61153 120.875,-98.02148 0.50005,-0.30775 1.58383,-0.86068 2.92383,-1.52344 62.9213,-65.68699 112.17773,-54.30859 112.17773,-54.30859 0,0 24.64146,-20.71371 30.71289,-31.78516 6.07144,-11.0714 -6.42773,-25 -6.42773,-25 0,0 -51.0717,7.85715 -85.35742,15 -34.28572,7.14286 -113.92911,3e-4 -125.71485,-2.14257 -11.7857,-2.14285 -5.35687,-6.78515 -2.14257,-9.28516 3.2143,-2.50001 59.46458,-0.5371 91.60742,-5.53711 24.76584,-3.85247 123.36523,-28.1875 123.36523,-28.1875 L 635,363.94922 c 1.72702,-37.92552 -40,-44.28711 -40,-44.28711 0,0 -34.9992,-12.14314 -91.42773,-17.85742 -12.34375,-1.25 -25.61463,-1.42911 -39.02344,-1.7168 z"
           id="path12914"
           inkscape:connector-curvature="0"
           sodipodi:nodetypes="ssccccccccccscsscccss"
           transform="scale(0.26458333)" />
        <g
           id="g12853"
           style="opacity:1;fill:#ff9955;stroke-width:0.7343474">
          <path
             sodipodi:nodetypes="cccc"
             inkscape:connector-curvature="0"
             id="path12734"
             d="m 94.705229,79.749455 c 0,0 0.273592,-1.33432 -0.995937,-2.319874 0.156208,0.591559 0.298879,1.489268 0.269206,2.046441 z"
             style="fill:url(#linearGradient1809);fill-opacity:1;stroke:#717171;stroke-width:0.19429608px;stroke-linecap:butt;stroke-linejoin:miter;stroke-opacity:0.48275865" />
          <use
             style="fill:#ff9955;stroke-width:0.61550421"
             transform="matrix(1.2024437,0,0,1.1837948,-20.483244,-15.103292)"
             height="100%"
             width="100%"
             id="use12756"
             xlink:href="#path12734"
             y="0"
             x="0" />
          <use
             style="fill:#ff9955;stroke-width:0.61550421"
             transform="matrix(1.2024437,0,0,1.1837948,-20.437405,-14.972149)"
             height="100%"
             width="100%"
             id="use12758"
             xlink:href="#use12756"
             y="0"
             x="0" />
          <use
             style="fill:#ff9955;stroke-width:0.61550421"
             transform="matrix(1.2024437,0,0,1.1837948,-20.485169,-14.495747)"
             height="100%"
             width="100%"
             id="use12760"
             xlink:href="#use12758"
             y="0"
             x="0" />
          <use
             style="fill:#ff9955;stroke-width:0.61550421"
             transform="matrix(1.2024437,0,0,1.1837948,-20.296491,-14.061593)"
             height="100%"
             width="100%"
             id="use12762"
             xlink:href="#use12760"
             y="0"
             x="0" />
          <use
             style="fill:#ff9955;stroke-width:0.61550421"
             transform="matrix(1.2024437,0,0,1.1837948,-20.023587,-13.546104)"
             height="100%"
             width="100%"
             id="use12764"
             xlink:href="#use12762"
             y="0"
             x="0" />
          <use
             style="fill:#ff9955;stroke-width:0.51765782"
             transform="matrix(1.4158806,-0.24688855,0.24578596,1.378459,-57.783984,-8.0226894)"
             height="100%"
             width="100%"
             id="use12768"
             xlink:href="#use12764"
             y="0"
             x="0" />
          <use
             style="fill:#ff9955;stroke-width:0.61760867"
             transform="matrix(1.1775026,-0.20762548,0.20532233,1.1644408,-34.574545,5.8159019)"
             height="100%"
             width="100%"
             id="use12776"
             xlink:href="#use12768"
             y="0"
             x="0" />
          <use
             style="fill:#ff9955;stroke-width:0.58879501"
             transform="matrix(1.2352787,-0.21534345,0.21781297,1.2212734,-39.025787,1.2979218)"
             height="100%"
             width="100%"
             id="use12778"
             xlink:href="#use12776"
             y="0"
             x="0" />
          <use
             style="fill:#ff9955;stroke-width:0.58879501"
             transform="matrix(1.2352787,-0.21781297,0.21534345,1.2212734,-39.560434,0.47387955)"
             height="100%"
             width="100%"
             id="use12786"
             xlink:href="#use12778"
             y="0"
             x="0" />
          <use
             style="fill:#ff9955;stroke-width:0.5864861"
             transform="matrix(1.2320046,-0.21761913,0.21723565,1.2341794,-39.119865,-0.41385099)"
             height="100%"
             width="100%"
             id="use12788"
             xlink:href="#use12786"
             y="0"
             x="0" />
          <use
             style="fill:#ff9955;stroke-width:0.5864861"
             transform="matrix(1.2510103,0,0,1.2532186,-20.208291,-16.947168)"
             height="100%"
             width="100%"
             id="use12790"
             xlink:href="#use12788"
             y="0"
             x="0" />
          <use
             style="fill:#ff9955;stroke-width:0.84026957"
             transform="matrix(0.87449486,0,0,0.8733907,4.698102,18.984449)"
             height="100%"
             width="100%"
             id="use12792"
             xlink:href="#use12790"
             y="0"
             x="0" />
          <use
             style="fill:#ff9955;stroke-width:0.84026957"
             transform="matrix(0.86120932,-0.15185444,0.1516627,0.86012193,-11.070452,29.496861)"
             height="100%"
             width="100%"
             id="use12794"
             xlink:href="#use12792"
             y="0"
             x="0" />
          <use
             style="fill:#ff9955;stroke-width:0.84191471"
             transform="matrix(0.86190403,-0.15197694,0.15094878,0.85607309,-12.613886,29.38636)"
             height="100%"
             width="100%"
             id="use12798"
             xlink:href="#use12794"
             y="0"
             x="0" />
          <use
             style="fill:#ff9955;stroke-width:0.84316421"
             transform="matrix(0.8758858,0,0,0.86602695,2.4889884,20.74702)"
             height="100%"
             width="100%"
             id="use12800"
             xlink:href="#use12798"
             y="0"
             x="0" />
          <use
             style="fill:#ff9955;stroke-width:0.98989046"
             transform="matrix(0.75177159,0,0,0.7320539,10.256565,35.654858)"
             height="100%"
             width="100%"
             id="use12802"
             xlink:href="#use12800"
             y="0"
             x="0" />
          <use
             style="fill:#ff9955;stroke-width:0.98989046"
             transform="matrix(0.75177159,0,0,0.7320539,10.256565,35.654858)"
             height="100%"
             width="100%"
             id="use12804"
             xlink:href="#use12802"
             y="0"
             x="0" />
          <use
             style="fill:#ff9955;stroke-width:0.98989046"
             transform="matrix(0.75177159,0,0,0.7320539,10.127837,35.606222)"
             height="100%"
             width="100%"
             id="use12806"
             xlink:href="#use12804"
             y="0"
             x="0" />
          <use
             style="fill:#ff9955;stroke-width:0.84316421"
             transform="matrix(0.8758858,0,0,0.86602695,4.5800489,18.806105)"
             height="100%"
             width="100%"
             id="use12808"
             xlink:href="#use12806"
             y="0"
             x="0" />
        </g>
        <path
           style="opacity:1;fill:#395f39;fill-opacity:1;stroke:#483e37;stroke-width:0.7343474px;stroke-linecap:butt;stroke-linejoin:miter;stroke-opacity:1"
           d="m 333.44141,295.64258 c -15.89779,1.81954 -29.74655,11.43461 -42.49414,20.45117 -13.38248,11.16579 -27.72652,22.38439 -35.5,38.43164 -9.67179,18.74631 -17.90283,38.22025 -28.80469,56.33594 -13.18493,22.2418 -25.45277,45.6735 -43.64844,64.32422 -13.411,13.60051 -30.85668,25.0948 -37.66992,43.73437 0.0364,-0.0319 0.073,-0.0638 0.10937,-0.0957 0.0143,-0.0127 0.0287,-0.0244 0.043,-0.0371 2.24869,-2.00555 4.48476,-3.9598 6.71875,-5.90625 0.0149,-0.013 0.03,-0.026 0.0449,-0.0391 0.65574,-0.57126 1.31419,-1.15565 1.96875,-1.72266 0.0194,-0.0168 0.0392,-0.034 0.0586,-0.0508 2.08886,-1.80918 4.16833,-3.58914 6.24609,-5.36328 0.0754,-0.0643 0.15113,-0.12886 0.22656,-0.19336 0.62657,-0.5348 1.25327,-1.07504 1.87891,-1.60742 0.0228,-0.0194 0.0456,-0.0392 0.0684,-0.0586 5.3056,-4.51425 10.58261,-8.95322 15.83398,-13.41015 0.008,-0.007 0.0174,-0.0145 0.0254,-0.0215 14.68672,-12.59217 29.19042,-25.39433 42.69726,-39.17578 0.003,-0.003 0.005,-0.005 0.008,-0.008 0.01,-0.01 0.0193,-0.0193 0.0293,-0.0293 0.0156,-0.016 0.0314,-0.0328 0.0469,-0.0488 1.83609,-1.89538 3.67369,-3.82843 5.51172,-5.80468 1.78476,-1.91882 3.57183,-3.88242 5.35938,-5.88672 0.009,-0.0103 0.0182,-0.021 0.0273,-0.0312 0.22407,-0.25192 0.44771,-0.51091 0.67188,-0.76367 1.45038,-1.63676 2.90265,-3.30685 4.35547,-5.00586 0.55936,-0.65377 1.11989,-1.30343 1.67968,-1.9668 0.005,-0.006 0.0103,-0.0132 0.0156,-0.0195 0.36261,-0.43009 0.7251,-0.86068 1.08789,-1.29492 0.003,-0.003 0.005,-0.007 0.008,-0.01 1.17491,-1.40585 2.35035,-2.82572 3.52735,-4.27734 4.58902,-5.6598 9.18461,-11.38306 13.75976,-17.09766 4.57483,-5.7142 9.12884,-11.41759 13.63281,-17.04102 9.00796,-11.24684 17.81664,-22.16748 26.19922,-32.17773 v -0.002 c 0.0178,-0.0213 0.0349,-0.0413 0.0527,-0.0625 0.003,-0.004 0.007,-0.006 0.01,-0.01 0.0733,-0.0874 0.14553,-0.16865 0.21875,-0.25586 22.2729,-26.52628 42.99676,-42.78389 53.26953,-49.06836 5.41441,-3.31231 10.65218,-5.90084 15.79297,-7.91406 -0.95755,-0.922 -2.78061,-1.68183 -5.8457,-2.16797 -8.83313,-2.58687 -17.96232,-4.72503 -27.2207,-4.65234 z"
           transform="scale(0.26458333)"
           id="path12723"
           inkscape:connector-curvature="0" />
        <g
           id="g13017"
           style="stroke-width:0.7343474">
          <path
             sodipodi:nodetypes="csccssc"
             inkscape:connector-curvature="0"
             id="path12855"
             d="m 85.989582,95.916664 c 0,0 16.252978,0.377979 22.017118,2.173364 5.76413,1.795386 12.70707,-0.04487 14.88043,-2.029246 2.17337,-1.984375 7.9375,-7.181549 7.9375,-7.181549 0,0 -9.70209,-6.099138 -15.26415,-6.857941 -5.61353,-0.765826 -9.29203,-2.059481 -16.625214,2.886816 C 87.524347,92.60487 85.989582,95.916664 85.989582,95.916664 Z"
             style="opacity:0.59574465;fill:#786721;stroke:#483e37;stroke-width:0.36717373;stroke-linecap:butt;stroke-linejoin:miter;stroke-miterlimit:4;stroke-dasharray:none;stroke-opacity:1" />
          <path
             sodipodi:nodetypes="cscsc"
             inkscape:connector-curvature="0"
             id="path12859"
             d="m 104.49023,89.831028 c 0,0 2.01022,-6.395175 7.76297,-5.577573 6.05735,0.860893 8.83993,4.647041 10.12283,4.977895 -1.31292,1.605511 -5.47902,6.080381 -8.4524,6.882191 -2.97337,0.801806 -8.73182,-2.440514 -9.4334,-6.282513 z"
             style="opacity:0.59574465;fill:url(#radialGradient14543);fill-opacity:1;stroke:#000000;stroke-width:0.55076057;stroke-linecap:butt;stroke-linejoin:miter;stroke-miterlimit:4;stroke-dasharray:none;stroke-opacity:1" />
          <path
             sodipodi:nodetypes="cscsc"
             inkscape:connector-curvature="0"
             id="path12861"
             d="m 107.55785,89.727306 c 0,0 0.7087,3.63802 3.89788,3.756136 3.57477,0.132397 6.23661,-3.425407 6.23661,-3.425407 0,0 -1.53469,-2.347721 -4.98457,-2.787576 -4.78087,-0.609555 -5.14992,2.456847 -5.14992,2.456847 z"
             style="opacity:0.59574465;fill:#918a6f;stroke:#000000;stroke-width:0.19429608px;stroke-linecap:butt;stroke-linejoin:miter;stroke-opacity:1" />
          <circle
             clip-path="url(#clipPath13008)"
             r="3.9479334"
             cy="90.060837"
             cx="112.40348"
             id="path12863"
             style="opacity:0.59574465;fill:url(#radialGradient14560);fill-opacity:1;stroke:none;stroke-width:0.14172904;stroke-linecap:butt;stroke-linejoin:round;stroke-miterlimit:4;stroke-dasharray:none;stroke-opacity:1;paint-order:markers fill stroke" />
          <path
             style="opacity:0.59574465;fill:#1a1a1a;fill-opacity:1;stroke:none;stroke-width:0.14172904;stroke-linecap:butt;stroke-linejoin:round;stroke-miterlimit:4;stroke-dasharray:none;stroke-opacity:1;paint-order:markers fill stroke"
             d="m 114.30237,90.630898 c 0,0.88393 -0.80875,1.27505 -1.6005,1.78136 -0.49067,-0.299748 -1.60049,-0.897434 -1.60049,-1.78136 0,-0.883927 1.13604,-1.540057 1.60049,-1.845956 0.52292,0.345872 1.6005,0.962025 1.6005,1.845956 z"
             id="path12865"
             inkscape:connector-curvature="0"
             sodipodi:nodetypes="scscs" />
          <ellipse
             style="opacity:0.55199998;fill:#6c6753;fill-opacity:1;stroke:#483e37;stroke-width:0.55700403;stroke-linecap:butt;stroke-linejoin:round;stroke-miterlimit:4;stroke-dasharray:none;stroke-opacity:1;paint-order:markers fill stroke"
             id="path14531"
             cx="159.73891"
             cy="97.989105"
             rx="14.31315"
             ry="16.113083"
             transform="matrix(0.92860737,0.37106382,-0.55777334,0.82999332,0,0)" />
        </g>
        <g
           id="g13086"
           style="stroke-width:0.7343474">
          <path
             style="opacity:1;fill:url(#linearGradient1811);fill-opacity:1;stroke:#878787;stroke-width:0.14686948;stroke-linecap:butt;stroke-linejoin:miter;stroke-miterlimit:4;stroke-dasharray:none;stroke-opacity:0.99568936"
             d="m 158.59962,124.23146 c 0,0 1.35898,-0.0918 2.16498,1.29868 -0.56521,-0.23429 -1.4356,-0.49631 -1.9917,-0.54179 z"
             id="path12734-3"
             inkscape:connector-curvature="0"
             sodipodi:nodetypes="cccc" />
          <use
             style="opacity:1;stroke-width:0.58611315"
             transform="matrix(1.243795,0,0,1.2620932,-39.899035,-31.034005)"
             height="100%"
             width="100%"
             id="use12886"
             xlink:href="#path12734-3"
             y="0"
             x="0" />
          <use
             style="opacity:1;stroke-width:0.58611315"
             transform="matrix(1.243795,0,0,1.2620932,-39.535824,-30.960611)"
             height="100%"
             width="100%"
             id="use12888"
             xlink:href="#use12886"
             y="0"
             x="0" />
          <use
             style="opacity:1;stroke-width:0.48768672"
             transform="matrix(1.4875899,0,0,1.5241864,-76.585538,-64.097962)"
             height="100%"
             width="100%"
             id="use12890"
             xlink:href="#use12888"
             y="0"
             x="0" />
          <use
             style="opacity:1;stroke-width:0.48768672"
             transform="matrix(1.4875899,0,0,1.5241864,-76.540782,-64.684781)"
             height="100%"
             width="100%"
             id="use12892"
             xlink:href="#use12890"
             y="0"
             x="0" />
          <use
             style="opacity:1;stroke-width:0.6519056"
             transform="matrix(1.1218975,0,0,1.1310466,-19.862892,-13.090197)"
             height="100%"
             width="100%"
             id="use12894"
             xlink:href="#use12892"
             y="0"
             x="0" />
          <use
             style="opacity:1;stroke-width:0.6519056"
             transform="matrix(1.1218975,0,0,1.1310466,-19.895127,-12.941847)"
             height="100%"
             width="100%"
             id="use12896"
             xlink:href="#use12894"
             y="0"
             x="0" />
          <use
             style="opacity:1;stroke-width:0.7343474"
             transform="rotate(5,89.599827,133.92262)"
             height="100%"
             width="100%"
             id="use12898"
             xlink:href="#use12896"
             y="0"
             x="0" />
          <use
             style="opacity:1;stroke-width:0.7343474"
             transform="translate(-2.4942829,6.1956453)"
             height="100%"
             width="100%"
             id="use12900"
             xlink:href="#use12898"
             y="0"
             x="0" />
          <use
             style="opacity:1;stroke-width:0.7343474"
             transform="translate(-2.2377401,6.1887681)"
             height="100%"
             width="100%"
             id="use12902"
             xlink:href="#use12900"
             y="0"
             x="0" />
          <use
             style="opacity:1;stroke-width:0.7343474"
             transform="translate(-2.565253,6.8715272)"
             height="100%"
             width="100%"
             id="use12904"
             xlink:href="#use12902"
             y="0"
             x="0" />
        </g>
        <g
           id="g13059"
           style="stroke:#483e37;stroke-width:0.7343474;stroke-opacity:1">
          <path
             inkscape:connector-curvature="0"
             id="path12857"
             d="m 152.51339,86.79799 c 0,0 -4.11049,6.756323 -1.5119,6.520087 2.59858,-0.236233 4.25223,-1.275667 4.06324,-2.598584 -0.18899,-1.322916 -2.55134,-3.921503 -2.55134,-3.921503 z"
             style="opacity:0.59574465;fill:#000000;stroke:#483e37;stroke-width:0.19429608px;stroke-linecap:butt;stroke-linejoin:miter;stroke-opacity:1" />
          <path
             style="opacity:1;fill:url(#linearGradient1813);fill-opacity:1;stroke:#483e37;stroke-width:0.19429608px;stroke-linecap:butt;stroke-linejoin:miter;stroke-opacity:1"
             d="m 154.32627,85.431797 c 0,0 1.4512,-2.500374 -1.24735,-5.062663 0.0677,1.243458 -0.0715,3.084522 -0.46083,4.169724 z"
             id="path12983"
             inkscape:connector-curvature="0"
             sodipodi:nodetypes="cccc" />
          <use
             style="stroke:#483e37;stroke-width:1.1299504;stroke-opacity:1"
             transform="matrix(0.64110385,0,0,0.65880366,52.629654,26.980034)"
             height="100%"
             width="100%"
             id="use12985"
             xlink:href="#path12983"
             y="0"
             x="0" />
          <use
             transform="translate(5.6084302,2.417917)"
             height="100%"
             width="100%"
             id="use12987"
             xlink:href="#use12985"
             y="0"
             x="0"
             style="stroke:#483e37;stroke-width:0.7343474;stroke-opacity:1" />
        </g>
        <use
           style="stroke-width:1.1299504"
           transform="matrix(0.62298554,-0.15133791,0.15551609,0.64018513,4.8933368,48.636209)"
           height="100%"
           width="100%"
           id="use12989"
           xlink:href="#path12983"
           y="0"
           x="0" />
        <g
           id="g2061">
          <use
             style="stroke-width:1.1299504"
             transform="matrix(0.62298554,-0.15133791,0.15551609,0.64018513,4.8933368,48.636209)"
             height="100%"
             width="100%"
             id="use13099"
             xlink:href="#path12983"
             y="0"
             x="0" />
          <use
             style="stroke-width:0.7343474"
             transform="rotate(-5,109.49774,109.39556)"
             height="100%"
             width="100%"
             id="use13105"
             xlink:href="#use13099"
             y="0"
             x="0" />
          <use
             style="stroke-width:0.7343474"
             transform="rotate(-5,108.18248,108.61723)"
             height="100%"
             width="100%"
             id="use13107"
             xlink:href="#use13105"
             y="0"
             x="0" />
          <use
             style="stroke-width:0.7343474"
             transform="rotate(-5,107.85599,106.20195)"
             height="100%"
             width="100%"
             id="use13109"
             xlink:href="#use13107"
             y="0"
             x="0" />
          <use
             style="stroke-width:0.7343474"
             transform="rotate(-5,110.10641,102.06511)"
             height="100%"
             width="100%"
             id="use13111"
             xlink:href="#use13109"
             y="0"
             x="0" />
          <use
             style="stroke-width:0.77711713"
             transform="matrix(0.94074162,-0.08241381,0.08230423,0.94199416,-2.4017969,13.653111)"
             height="100%"
             width="100%"
             id="use13113"
             xlink:href="#use13111"
             y="0"
             x="0" />
          <use
             style="stroke-width:0.77711713"
             transform="matrix(0.94074162,-0.08230423,0.08241381,0.94199416,-2.2810718,13.718431)"
             height="100%"
             width="100%"
             id="use13115"
             xlink:href="#use13113"
             y="0"
             x="0" />
        </g>
      </g>
    </g>
  </g>
</svg>
