<?xml version="1.0" encoding="UTF-8" standalone="no"?>
<!-- Generator: Adobe Illustrator 22.0.0, SVG Export Plug-In . SVG Version: 6.00 Build 0)  -->

<svg
   xmlns:dc="http://purl.org/dc/elements/1.1/"
   xmlns:cc="http://creativecommons.org/ns#"
   xmlns:rdf="http://www.w3.org/1999/02/22-rdf-syntax-ns#"
   xmlns:svg="http://www.w3.org/2000/svg"
   xmlns="http://www.w3.org/2000/svg"
   xmlns:xlink="http://www.w3.org/1999/xlink"
   xmlns:sodipodi="http://sodipodi.sourceforge.net/DTD/sodipodi-0.dtd"
   xmlns:inkscape="http://www.inkscape.org/namespaces/inkscape"
   version="1.1"
   x="0px"
   y="0px"
   width="400"
   height="400"
   viewBox="0 0 400 400"
   enable-background="new 0 0 1400 980"
   xml:space="preserve"
   id="svg3279"
   sodipodi:docname="fons.svg"
   inkscape:version="0.92.4 5da689c313, 2019-01-14"><metadata
   id="metadata3285"><rdf:RDF><cc:Work
       rdf:about=""><dc:format>image/svg+xml</dc:format><dc:type
         rdf:resource="http://purl.org/dc/dcmitype/StillImage" /><dc:title></dc:title></cc:Work></rdf:RDF></metadata><defs
   id="defs3283" /><sodipodi:namedview
   pagecolor="#ffffff"
   bordercolor="#666666"
   borderopacity="1"
   objecttolerance="10"
   gridtolerance="10"
   guidetolerance="10"
   inkscape:pageopacity="0"
   inkscape:pageshadow="2"
   inkscape:window-width="1920"
   inkscape:window-height="1173"
   id="namedview3281"
   showgrid="false"
   inkscape:zoom="1.4142136"
   inkscape:cx="135.35409"
   inkscape:cy="191.78233"
   inkscape:window-x="0"
   inkscape:window-y="27"
   inkscape:window-maximized="1"
   inkscape:current-layer="g3270"
   inkscape:snap-intersection-paths="true"
   inkscape:object-paths="true"
   inkscape:snap-smooth-nodes="true"
   inkscape:snap-midpoints="true"
   inkscape:snap-object-midpoints="true"
   inkscape:snap-bbox="true"
   inkscape:bbox-paths="true"
   inkscape:bbox-nodes="true"
   fit-margin-top="0"
   fit-margin-left="0"
   fit-margin-right="0"
   fit-margin-bottom="0" />

<g
   id="OBJECTS"
   style="display:inline"
   transform="translate(-501.20675,-450.4725)">
	<g
   id="g3276">
		<defs
   id="defs11"><rect
     id="SVGID_2_"
     width="1400"
     height="980"
     x="0"
     y="0" /></defs>
		<clipPath
   id="SVGID_3_">
			<use
   xlink:href="#SVGID_2_"
   overflow="visible"
   id="use13"
   style="overflow:visible"
   x="0"
   y="0"
   width="100%"
   height="100%" />
		</clipPath>
		
		
		
		
		
		
		
		
		
		<g
   clip-path="url(#SVGID_3_)"
   id="g3274">
			<g
   id="g3270">
				
				
				
				
				
				
				
				
				
				
				
				
				
				
				
				
				
				
				
				
				
				
				
			<g
   id="g11947"
   transform="translate(1.21925,-49.081855)"><g
     id="g12004"
     transform="translate(3.6985826)"><path
       style="fill:#666666;stroke:none;stroke-width:0.99999994px;stroke-linecap:butt;stroke-linejoin:miter;stroke-opacity:1"
       d="m 696.55291,534.61972 v 21.54101 h 5.15039 v -16.38281 z"
       id="path4092"
       inkscape:connector-curvature="0" /><use
       x="0"
       y="0"
       xlink:href="#path4092"
       id="use4097"
       width="100%"
       height="100%"
       transform="matrix(-1,0,0,1,1393.1059,0)"
       style="stroke-width:1.29099441" /><path
       sodipodi:nodetypes="ccccc"
       style="opacity:0.7;fill:#00ccff;stroke:none;stroke-width:1px;stroke-linecap:butt;stroke-linejoin:miter;stroke-opacity:1"
       d="m 699.12811,537.19882 c 29.07117,-34.64567 44.55931,-11.2146 47.26472,4.84013 h 17.69724 c -4.19231,-8.66785 -21.59045,-32.08835 -35.90581,-32.05302 -11.03083,0.31835 -23.58554,13.67266 -29.05615,27.21289 z"
       id="path4118"
       inkscape:connector-curvature="0" /><path
       inkscape:connector-curvature="0"
       id="path12014"
       d="m 693.9778,537.19882 c -29.07118,-34.64567 -44.55931,-11.2146 -47.26473,4.84013 h -17.69723 c 4.19231,-8.66785 21.59045,-32.08835 35.9058,-32.05302 11.03084,0.31835 23.58555,13.67266 29.05616,27.21289 z"
       style="opacity:0.7;fill:#00ccff;stroke:none;stroke-width:1px;stroke-linecap:butt;stroke-linejoin:miter;stroke-opacity:1"
       sodipodi:nodetypes="ccccc" /></g><use
     inkscape:export-ydpi="445.01099"
     inkscape:export-xdpi="445.01099"
     inkscape:export-filename="/home/ykw/use11877.png"
     style="stroke-width:1.66754377"
     transform="matrix(0.59936903,0,0,0.6,278.839,184.14115)"
     height="100%"
     width="100%"
     id="use11879"
     xlink:href="#use11877"
     y="0"
     x="0" /></g><path
   inkscape:export-ydpi="445.01099"
   inkscape:export-xdpi="445.01099"
   inkscape:export-filename="/home/ykw/use11877.png"
   style="fill:#4d4d4d;stroke-width:1"
   inkscape:connector-curvature="0"
   id="path12096"
   d="m 701.0965,773.99596 c -92.232,0 -165.564,11.655 -194.04,27.195 -6.174,3.36 -6.174,8.19 0,11.655 28.476,15.645 101.808,27.195 194.04,27.195 92.736,0 166.32,-11.76 194.544,-27.51 5.796,-3.255 5.796,-7.875 0,-11.13 -28.224,-15.645 -101.808,-27.405 -194.544,-27.405 z" /><path
   d="m 701.10175,775.56846 c -87.84,0 -157.68,11.1 -184.8,25.9 -5.88,3.2 -5.88,7.8 0,11.1 27.12,14.9 96.96,25.9 184.8,25.9 88.32,0 158.4,-11.2 185.28,-26.2 5.52,-3.1 5.52,-7.5 0,-10.6 -26.88,-14.9 -96.96,-26.1 -185.28,-26.1 z"
   id="path3108"
   inkscape:connector-curvature="0"
   style="fill:#2ad4ff;stroke-width:1"
   inkscape:export-filename="/home/ykw/use11877.png"
   inkscape:export-xdpi="445.01099"
   inkscape:export-ydpi="445.01099" /><path
   style="fill:#00aad4;stroke-width:1"
   inkscape:connector-curvature="0"
   id="path11816"
   d="m 728.13396,783.35449 c -64.49505,0 -115.7739,6.52 -135.68629,15.21332 -4.31729,1.87963 -4.31729,4.58162 0,6.51999 19.91239,8.75206 71.19124,15.21331 135.68629,15.21331 64.84747,0 116.30253,-6.57873 136.03872,-15.38953 4.05297,-1.8209 4.05297,-4.4054 0,-6.2263 -19.73619,-8.75206 -71.19125,-15.33079 -136.03872,-15.33079 z"
   inkscape:export-filename="/home/ykw/use11877.png"
   inkscape:export-xdpi="445.01099"
   inkscape:export-ydpi="445.01099" /><g
   inkscape:export-ydpi="445.01099"
   inkscape:export-xdpi="445.01099"
   inkscape:export-filename="/home/ykw/use11877.png"
   id="use11877"
   style="stroke-width:1.084867"
   transform="matrix(1,0,0,0.84966347,1.21925,112.94844)"><path
     style="opacity:0.3;fill:#2ad4ff;stroke:none;stroke-width:1px;stroke-linecap:butt;stroke-linejoin:miter;stroke-opacity:1"
     d="m 532.40234,569.32227 c -13.89848,10.3914 -5.62715,66.47435 -1.88867,79.46484 5.42643,18.85584 15.46243,76.24641 16.83985,99.00591 5.60596,21.51594 15.44336,60.20739 23.44623,51.36509 12.52144,-13.83481 14.84312,-112.76171 27.99014,-126.92143 14.34515,-15.45018 34.25359,136.50687 41.33441,117.99797 7.18056,-16.3833 3.62731,-180.65153 21.28195,-163.34793 14.29916,15.25767 21.92443,35.35914 33.69727,52.16797 8.34587,17.93659 27.18427,26.64167 42.55078,36.96875 18.6603,-0.25139 22.91549,-28.13365 37.71093,-37.77539 15.78829,-23.39528 34.35342,-3.33727 43.57813,13.66211 4.65686,13.70739 24.25585,155.53577 47.86523,125.30498 23.60938,-30.23079 9.73451,-195.83011 8.79776,-215.77036 -0.93675,-19.94025 -0.54831,-33.42186 -8.50869,-32.12251 -110.29655,0.9555 -222.96066,0 -334.69532,0 z"
     id="path11881"
     inkscape:connector-curvature="0"
     sodipodi:nodetypes="cscsccccccczzcc" /><path
     style="fill:#999999"
     d="M 661.80078,644.59961 V 815.375 c 0.0233,0.005 0.045,0.009 0.0684,0.0137 23.23872,6.79416 48.31011,7.34291 76.43555,0 6.4e-4,-1.3e-4 0.001,1.3e-4 0.002,0 V 665.17578 c -0.0654,-6.67491 -0.10742,-13.48381 -0.10742,-20.57617 z"
     id="path11883"
     inkscape:connector-curvature="0"
     sodipodi:nodetypes="cccccccc" /><path
     d="m 738.2,645.3 c 0,-1.7 -1.1,-3.1 -2.4,-3.1 H 700 664.2 c -1.3,0 -4.06592,6.9166 -2.40972,7.3 l 76.51616,17.28802 -0.0662,-7.92524 C 738.04021,654.36278 738.2,650 738.2,645.3 Z"
     id="path11885"
     inkscape:connector-curvature="0"
     style="fill:#646568"
     sodipodi:nodetypes="sscssccs" /><g
     id="g11909"
     transform="matrix(1,0,0,0.83727078,0,105.6351)"
     style="stroke-width:1.0928663">
					<g
   id="g11891"
   style="stroke-width:1.0928663">
						<path
   d="m 575.5,601.4 c 0,15.1 13.2,27.3 29.6,27.3 h 189.6 c 16.3,0 29.6,-12.2 29.6,-27.3 z"
   id="path11887"
   inkscape:connector-curvature="0"
   style="fill:#808080;stroke-width:1.0928663" />
						<path
   d="m 821.8,612.2 c 0,0 2.4,-7 2.4,-10.8 H 575.5 Z"
   id="path11889"
   inkscape:connector-curvature="0"
   style="fill:#646568;stroke-width:1.0928663"
   sodipodi:nodetypes="cccc" />
					</g>
					<g
   id="g11897"
   style="stroke-width:1.0928663">
						<path
   d="m 538.6,556.7 c 0,24.7 17.2,44.7 38.4,44.7 h 246 c 21.2,0 38.4,-20 38.4,-44.7 z"
   id="path11893"
   inkscape:connector-curvature="0"
   style="fill:#808080;stroke-width:1.0928663" />
						<path
   d="m 858.3,574.4 c 0,0 3.1,-11.4 3.1,-17.7 H 538.6 Z"
   id="path11895"
   inkscape:connector-curvature="0"
   style="fill:#646568;stroke-width:1.0928663"
   sodipodi:nodetypes="cccc" />
					</g>
					<g
   id="g11903"
   style="stroke-width:1.0928663">
						<path
   d="m 605.7,628.8 c 0,11.4 10,20.7 22.4,20.7 h 143.7 c 12.4,0 22.4,-9.3 22.4,-20.7 z"
   id="path11899"
   inkscape:connector-curvature="0"
   style="fill:#808080;stroke-width:1.0928663" />
						<path
   d="m 792.3,637 c 0,0 1.8,-5.3 1.8,-8.2 H 605.7 Z"
   id="path11901"
   inkscape:connector-curvature="0"
   style="fill:#646568;stroke-width:1.0928663"
   sodipodi:nodetypes="cccc" />
					</g>
					<g
   id="g11907"
   style="fill:#e6e6e6;stroke:#999999;stroke-width:1.0928663">
						<path
   d="M 866.2,561.4 H 533.8 c -2.7,0 -4.9,-1.8 -4.9,-3.9 0,-2.2 2.2,-3.9 4.9,-3.9 h 332.3 c 2.7,0 4.9,1.8 4.9,3.9 0.1,2.2 -2.1,3.9 -4.8,3.9 z"
   id="path11905"
   inkscape:connector-curvature="0"
   style="fill:#e6e6e6;stroke:#999999;stroke-width:1.0928663" />
					</g>
				</g><path
     sodipodi:nodetypes="ccssssccsccc"
     inkscape:connector-curvature="0"
     id="path11911"
     d="m 867.08073,568.68277 c 15.42531,-0.62288 6.31207,58.86796 6.31279,90.5176 -0.0588,20.77478 1.20364,158.44199 -32.57942,152.13172 -14.39973,-2.6897 -35.30382,-64.93422 -37.38408,-68.55698 -9.87055,-17.18947 -1.01571,108.10842 -6.87205,97.76042 -9.27215,-16.38367 -47.53189,-15.3733 -51.26479,-2.04229 -7.01959,25.06863 -41.77666,-5.18489 -52.44095,-6.04128 -36.38432,-19.64844 -2.47938,-105.34514 -41.67381,-102.76588 -29.40211,0.91535 -18.43427,100.1495 -34.30819,99.84017 -12.23816,-0.23851 -54.94471,1.05674 -60.77065,-11.32085 7.53367,-55.88397 -53.66624,-203.58444 -25.30183,-249.52262 z"
     style="opacity:0.3;fill:#00ccff;fill-opacity:0.73885342;stroke:none;stroke-width:0.99999994px;stroke-linecap:butt;stroke-linejoin:miter;stroke-opacity:1" /></g></g>
			
		</g>
	</g>
</g>
</svg>